<svg id="_ÎÓÈ_1" data-name="—ÎÓÈ 1" xmlns="http://www.w3.org/2000/svg" viewBox="0 0 595.9 660"><defs><style>.cls-1{fill:#b3db2c;}.cls-2{fill:#c7d1eb;}.cls-3{fill:#fef0b3;}.cls-4{fill:#98c62c;}.cls-5{fill:#abd42c;}.cls-6{fill:#a1d62c;}.cls-7{fill:#78b53d;}.cls-8{fill:#d1c90f;}.cls-9{fill:#e8e80f;}.cls-10{fill:#d1d40f;}.cls-11{fill:#dbe30f;}.cls-12{fill:#d1ad0f;}.cls-13{fill:#deba0f;}.cls-14{fill:#dedb0f;}.cls-15{fill:#dbd129;}.cls-16{fill:#dbb80f;}.cls-17{fill:#4d8e3f;}.cls-18{fill:#9ebf3d;}.cls-19{fill:#8aaf41;}.cls-20{fill:#478f41;}.cls-21{fill:#478f85;}.cls-22{fill:#47ab41;}.cls-23{fill:#fff;}.cls-24{fill:#dbd9ff;}.cls-25{fill:#dedbff;}.cls-26{fill:#ebe8ff;}</style></defs><title>land</title><path class="cls-1" d="M385.44,288.5c-0.25-8-13.88-14.5-30.68-14.5a62.23,62.23,0,0,0-8.44.57c-2.89-6.69-15.25-11.72-30.05-11.72-16.95,0-30.69,6.59-30.69,14.72a8,8,0,0,0,1.33,4.3c-1.95-.19-4-0.29-6-0.29-16.86,0-30.55,6.53-30.68,14.6a33.87,33.87,0,0,0-4.69-.33c-11.2,0-20.29,5.36-20.29,12a7.25,7.25,0,0,0,.2,1.68c-3.35,2.14-5.4,5-5.4,8.14,0,5.4,6.05,10,14.37,11.46,9.14,17.66,50.46,31,100.07,31,56.31,0,102-17.18,102-38.37C436.43,307.54,415.92,295.14,385.44,288.5Z"/><rect class="cls-2" x="0.51" width="594.79" height="459.29"/><circle class="cls-3" cx="356.45" cy="70.65" r="31.96"/><polygon class="cls-3" points="350.89 0 351.87 40.37 352.75 0 350.89 0"/><polygon class="cls-3" points="345.68 0 349.64 40.61 347.56 0 345.68 0"/><polygon class="cls-3" points="340.39 0 347.44 41.01 342.32 0 340.39 0"/><polygon class="cls-3" points="334.95 0 345.28 41.57 336.96 0 334.95 0"/><polygon class="cls-3" points="329.3 0 343.17 42.29 331.43 0 329.3 0"/><polygon class="cls-3" points="323.37 0 341.11 43.16 325.66 0 323.37 0"/><polygon class="cls-3" points="317.06 0 339.12 44.17 319.55 0 317.06 0"/><polygon class="cls-3" points="310.26 0 337.21 45.34 313.02 0 310.26 0"/><polygon class="cls-3" points="302.84 0 335.39 46.63 305.94 0 302.84 0"/><polygon class="cls-3" points="294.6 0 333.67 48.06 298.15 0 294.6 0"/><polygon class="cls-3" points="285.31 0 332.06 49.61 289.45 0 285.31 0"/><polygon class="cls-3" points="274.63 0 330.56 51.27 279.56 0 274.63 0"/><polygon class="cls-3" points="262.08 0 329.2 53.04 268.1 0 262.08 0"/><polygon class="cls-3" points="246.95 0 327.96 54.9 254.49 0 246.95 0"/><polygon class="cls-3" points="228.13 0 326.87 56.85 237.89 0 228.13 0"/><polygon class="cls-3" points="203.81 0 325.92 58.87 216.96 0 203.81 0"/><polygon class="cls-3" points="170.75 0 325.12 60.96 189.43 0 170.75 0"/><polygon class="cls-3" points="122.58 0 324.47 63.09 151.11 0 122.58 0"/><polygon class="cls-3" points="44.88 0 323.98 65.28 93.42 0 44.88 0"/><polygon class="cls-3" points="0 0.96 0 16.39 323.66 67.49 0 0.96"/><polygon class="cls-3" points="0 27.57 0 42.67 323.49 69.71 0 27.57"/><polygon class="cls-3" points="0 53.68 0 68.63 323.49 71.95 0 53.68"/><polygon class="cls-3" points="0 79.6 0 94.56 323.65 74.18 0 79.6"/><polygon class="cls-3" points="0 105.6 0 120.75 323.98 76.39 0 105.6"/><polygon class="cls-3" points="0 131.96 0 147.47 324.47 78.57 0 131.96"/><polygon class="cls-3" points="0 158.98 0 175.04 325.11 80.71 0 158.98"/><polygon class="cls-3" points="0 186.98 0 203.82 325.91 82.8 0 186.98"/><polygon class="cls-3" points="0 216.35 0 234.22 326.86 84.82 0 216.35"/><polygon class="cls-3" points="0 247.51 0 266.73 327.95 86.77 0 247.51"/><polygon class="cls-3" points="0 281.02 0 301.98 329.19 88.63 0 281.02"/><polygon class="cls-3" points="0 317.54 0 340.75 330.55 90.4 0 317.54"/><polygon class="cls-3" points="0 357.96 0 376.69 3.57 380.95 332.05 92.06 0 357.96"/><polygon class="cls-3" points="333.65 93.61 27.18 405.74 13.12 391.26 333.65 93.61"/><polygon class="cls-3" points="335.37 95.04 52.53 428.74 37.45 415.32 335.37 95.04"/><polygon class="cls-3" points="337.19 96.34 79.5 449.82 63.48 437.54 337.19 96.34"/><polygon class="cls-3" points="339.1 97.5 107.94 468.87 91.06 457.79 339.1 97.5"/><polygon class="cls-3" points="341.09 98.52 137.69 485.8 120.05 475.98 341.09 98.52"/><polygon class="cls-3" points="343.15 99.39 168.6 500.5 150.29 492 343.15 99.39"/><polygon class="cls-3" points="345.26 100.11 200.5 512.9 181.62 505.76 345.26 100.11"/><polygon class="cls-3" points="347.43 100.67 233.23 522.94 213.88 517.2 347.43 100.67"/><polygon class="cls-3" points="349.62 101.07 266.6 530.56 246.88 526.25 349.62 101.07"/><polygon class="cls-3" points="351.85 101.31 300.44 535.73 280.45 532.87 351.85 101.31"/><polygon class="cls-3" points="354.08 101.39 334.56 538.4 314.42 537.01 354.08 101.39"/><polygon class="cls-3" points="356.31 101.31 368.79 538.57 348.61 538.66 356.31 101.31"/><polygon class="cls-3" points="358.53 101.06 402.94 536.24 382.82 537.8 358.53 101.06"/><polygon class="cls-3" points="360.73 100.65 436.83 531.42 416.87 534.45 360.73 100.65"/><polygon class="cls-3" points="362.89 100.08 470.27 524.13 450.59 528.61 362.89 100.08"/><polygon class="cls-3" points="365 99.35 503.1 514.42 483.8 520.33 365 99.35"/><polygon class="cls-3" points="367.06 98.47 535.12 502.34 516.31 509.64 367.06 98.47"/><polygon class="cls-3" points="369.04 97.44 566.18 487.94 547.95 496.6 369.04 97.44"/><polygon class="cls-3" points="595.31 470 370.94 96.27 578.55 481.29 595.31 471.77 595.31 470"/><polygon class="cls-3" points="595.31 410.8 372.76 94.97 595.31 443.95 595.31 410.8"/><polygon class="cls-3" points="595.31 362.75 374.47 93.53 595.31 389.61 595.31 362.75"/><polygon class="cls-3" points="595.31 322.56 376.08 91.98 595.31 344.98 595.31 322.56"/><polygon class="cls-3" points="595.31 288.12 377.56 90.31 595.31 307.28 595.31 288.12"/><polygon class="cls-3" points="595.31 257.97 378.92 88.54 595.31 274.7 595.31 257.97"/><polygon class="cls-3" points="595.31 231.09 380.15 86.67 595.31 245.96 595.31 231.09"/><polygon class="cls-3" points="595.31 206.71 381.24 84.72 595.31 220.16 595.31 206.71"/><polygon class="cls-3" points="595.31 184.29 382.18 82.69 595.31 196.64 595.31 184.29"/><polygon class="cls-3" points="595.31 163.37 382.97 80.6 595.31 174.87 595.31 163.37"/><polygon class="cls-3" points="595.31 143.6 383.6 78.46 595.31 154.45 595.31 143.6"/><polygon class="cls-3" points="595.31 124.69 384.08 76.28 595.31 135.07 595.31 124.69"/><polygon class="cls-3" points="595.31 106.41 384.4 74.06 595.31 116.45 595.31 106.41"/><polygon class="cls-3" points="595.31 88.52 384.55 71.83 595.31 98.35 595.31 88.52"/><polygon class="cls-3" points="595.31 70.83 384.55 69.6 595.31 80.57 595.31 70.83"/><polygon class="cls-3" points="595.31 53.15 384.37 67.37 595.31 62.91 595.31 53.15"/><polygon class="cls-3" points="595.31 35.29 384.04 65.16 595.31 45.17 595.31 35.29"/><polygon class="cls-3" points="595.31 17.04 383.54 62.98 595.31 27.18 595.31 17.04"/><polygon class="cls-3" points="595.31 0 589.19 0 382.89 60.85 595.31 8.72 595.31 0"/><polygon class="cls-3" points="538.22 0 382.08 58.76 563.14 0 538.22 0"/><polygon class="cls-3" points="503.84 0 381.12 56.74 520.36 0 503.84 0"/><polygon class="cls-3" points="478.85 0 380.02 54.8 490.59 0 478.85 0"/><polygon class="cls-3" points="459.68 0 378.78 52.94 468.46 0 459.68 0"/><polygon class="cls-3" points="444.36 0 377.4 51.18 451.19 0 444.36 0"/><polygon class="cls-3" points="431.72 0 375.9 49.53 437.19 0 431.72 0"/><polygon class="cls-3" points="420.99 0 374.29 47.98 425.5 0 420.99 0"/><polygon class="cls-3" points="411.68 0 372.56 46.56 415.49 0 411.68 0"/><polygon class="cls-3" points="403.44 0 370.74 45.27 406.73 0 403.44 0"/><polygon class="cls-3" points="396.02 0 368.82 44.12 398.91 0 396.02 0"/><polygon class="cls-3" points="389.23 0 366.83 43.11 391.82 0 389.23 0"/><polygon class="cls-3" points="382.93 0 364.77 42.25 385.29 0 382.93 0"/><polygon class="cls-3" points="377.01 0 362.65 41.54 379.19 0 377.01 0"/><polygon class="cls-3" points="371.37 0 360.48 40.98 373.43 0 371.37 0"/><polygon class="cls-3" points="365.95 0 358.28 40.59 367.9 0 365.95 0"/><polygon class="cls-3" points="360.66 0 356.06 40.36 362.56 0 360.66 0"/><polygon class="cls-3" points="355.45 0 353.83 40.29 357.32 0 355.45 0"/><path class="cls-4" d="M595.58,281.63c-9.21-2.4-19.36-4.49-30.28-6.2,5.05-3.67,8.15-8.59,8.15-14,0-11.37-13.69-20.59-30.57-20.59-9.75,0-18.43,3.08-24,7.87a32.4,32.4,0,0,0-6-.55c-10.14,0-18.53,4.54-20,10.46a61,61,0,0,0-7-.39,53.72,53.72,0,0,0-18.16,3c-0.5-12.31-14-22.17-30.54-22.17-13.49,0-24.93,6.55-29,15.62q-1-.07-2.1-0.07c-11.16,0-20.2,5.5-20.2,12.28a7.86,7.86,0,0,0,.71,3.22c-6.9,2.37-11.72,6.1-12.87,10.41-9,1.22-15.82,6.12-15.82,12a7.54,7.54,0,0,0,.08,1c-13.23,6.86-20.8,14.81-20.8,23.3,0,25.78,69.82,46.67,155.94,46.67,39.22,0,75-4.34,102.43-11.5V281.63Z"/><path class="cls-4" d="M595.28,250.75a23.91,23.91,0,0,0-8.51,7.92,22.61,22.61,0,0,0-7.18-1.14c-9.05,0-16.4,5.05-16.4,11.29a8.15,8.15,0,0,0,.85,3.58c-25.56,6.85-43.73,24.34-43.73,44.84,0,26.47,30.31,47.93,67.69,47.93,2.46,0,4.89-.1,7.29-0.29V250.75Z"/><path class="cls-5" d="M255.59,313.76a10.13,10.13,0,0,0,.73-3.77c0-7-7.21-12.63-16.11-12.63a20,20,0,0,0-6.15,1c-3-10-14.47-17.46-28.16-17.46a35.27,35.27,0,0,0-13.69,2.7c-3.14-6.4-11.06-10.95-20.33-10.95-9.12,0-16.93,4.4-20.17,10.63l-1.31,0c-14.11,0-26.08,5.92-30.3,14.12C94.69,303.85,77.88,315.15,77.88,328c0,20.18,41.42,36.54,92.5,36.54s92.5-16.36,92.5-36.54C262.89,323,260.29,318.14,255.59,313.76Z"/><path class="cls-6" d="M115.37,302.2a14.8,14.8,0,0,0,1.19-5.77c0-12.54-16.32-22.71-36.44-22.71-9.93,0-18.93,2.48-25.5,6.49l-2.54-.3c-4.42-11.41-17-19.65-32-19.65a37.7,37.7,0,0,0-19.06,5V378a192.51,192.51,0,0,0,29.71,2.27c55.42,0,100.35-22.72,100.35-50.74C131.14,319.45,125.35,310.08,115.37,302.2Z"/><path class="cls-7" d="M258.84,329.13a9.75,9.75,0,0,0,.69-3.59c0-6.64-6.78-12-15.14-12a18.54,18.54,0,0,0-5.78.91c-2.83-9.52-13.6-16.61-26.46-16.61a32.79,32.79,0,0,0-12.86,2.56c-3-6.09-10.39-10.41-19.1-10.41s-15.9,4.18-19,10.11l-1.23,0c-13.26,0-24.5,5.63-28.46,13.43-23.87,6.2-39.66,16.95-39.66,29.18,0,19.2,38.91,34.76,86.9,34.76s86.9-15.56,86.9-34.76C265.69,337.88,263.25,333.3,258.84,329.13Z"/><path class="cls-7" d="M129.39,315.09a14.8,14.8,0,0,0,1.19-5.77c0-12.54-16.32-22.71-36.44-22.71-9.93,0-18.93,2.48-25.5,6.49l-2.54-.29c-4.42-11.41-17-19.65-32-19.65-11,0-20.72,4.47-26.86,11.38a32.16,32.16,0,0,0-6.22-.71V388.07a184.78,184.78,0,0,0,43.73,5.07c55.42,0,100.35-22.72,100.35-50.74C145.16,332.35,139.37,323,129.39,315.09Z"/><path class="cls-7" d="M384.29,301c-0.2-7.57-11.22-13.67-24.8-13.67a43.37,43.37,0,0,0-6.82.54c-2.33-6.31-12.32-11-24.29-11-13.7,0-24.81,6.21-24.81,13.88a8.4,8.4,0,0,0,1.08,4.05,44.05,44.05,0,0,0-4.86-.27c-13.63,0-24.69,6.15-24.8,13.76a23.57,23.57,0,0,0-3.79-.31c-9.06,0-16.4,5.05-16.4,11.29a7.93,7.93,0,0,0,.16,1.58c-2.71,2-4.37,4.71-4.37,7.67,0,5.09,4.89,9.39,11.62,10.8,7.39,16.64,40.79,29.21,80.88,29.21,45.51,0,82.41-16.19,82.41-36.16C425.5,319,408.92,307.29,384.29,301Z"/><path class="cls-7" d="M546.62,291c4.1-3.37,6.61-7.89,6.61-12.85,0-10.45-11.11-18.92-24.81-18.92-7.92,0-15,2.83-19.5,7.24a23.37,23.37,0,0,0-4.88-.51c-8.23,0-15,4.17-16.22,9.61a43.76,43.76,0,0,0-5.65-.36,39,39,0,0,0-14.74,2.71c-0.4-11.31-11.34-20.37-24.79-20.37-10.95,0-20.24,6-23.53,14.36q-0.84-.06-1.7-0.06c-9.06,0-16.4,5.05-16.4,11.29a8,8,0,0,0,.58,3c-5.6,2.18-9.51,5.61-10.44,9.57-7.34,1.12-12.84,5.63-12.84,11a7.64,7.64,0,0,0,.06.94c-10.74,6.3-16.88,13.61-16.88,21.41,0,23.69,56.66,42.89,126.56,42.89,45.18,0,84.82-8,107.21-20.1V306.21C583.36,299.78,566.55,294.51,546.62,291Z"/><path class="cls-7" d="M575.13,267.07a22.62,22.62,0,0,0-7.18-1.14c-9.06,0-16.4,5.05-16.4,11.29a8.14,8.14,0,0,0,.84,3.58c-25.56,6.85-43.73,24.34-43.73,44.84,0,26.47,30.31,47.93,67.69,47.93a93.87,93.87,0,0,0,18.92-1.9V255.87A25.19,25.19,0,0,0,575.13,267.07Z"/><ellipse class="cls-8" cx="343.61" cy="399.31" rx="179.68" ry="78.21"/><path class="cls-9" d="M340.24,329.51c94.69,0,172.26,31.88,179.18,72.32a34.92,34.92,0,0,0,.51-5.89c0-43.19-80.45-78.21-179.68-78.21s-179.68,35-179.68,78.21a34.86,34.86,0,0,0,.5,5.89C168,361.39,245.56,329.51,340.24,329.51Z"/><path class="cls-10" d="M134.22,325.3c-52.92,0-100.5,10-133.38,25.81v104.8c32.88,15.85,80.46,25.81,133.38,25.81,99.24,0,179.68-35,179.68-78.21S233.46,325.3,134.22,325.3Z"/><path class="cls-11" d="M312.65,412.76a35.26,35.26,0,0,0,1.26-9.25c0-43.19-80.45-78.21-179.68-78.21-52.92,0-100.5,10-133.38,25.81v18.5c32.88-15.85,80.46-25.81,133.38-25.81C226.27,343.81,302.13,373.93,312.65,412.76Z"/><ellipse class="cls-12" cx="345.71" cy="427.48" rx="170.01" ry="75.27"/><path class="cls-13" d="M337.3,364c89.42,0,162.71,30.56,169.5,69.38a34.1,34.1,0,0,0,.51-5.89c0-41.57-76.12-75.27-170-75.27s-170,33.7-170,75.27a34.1,34.1,0,0,0,.52,5.89C174.59,394.55,247.88,364,337.3,364Z"/><path class="cls-8" d="M595.2,319.83c-10.06-.82-20.42-1.25-31-1.25-93.9,0-170,33.7-170,75.27s76.12,75.26,170,75.26c10.59,0,21-.43,31-1.25v-148Z"/><path class="cls-14" d="M569.62,328.67q13,0,25.58.79v-13c-10.06-.82-20.42-1.25-31-1.25-93.9,0-170,33.7-170,75.27,0,0.91,0,1.81.12,2.71C406.57,356.71,480.38,328.67,569.62,328.67Z"/><path class="cls-12" d="M595.2,362.08q-10.27-3.05-21-5.62c-99-23.58-188.21-5.16-199.24,41.16s60.28,103,159.29,126.57a377.88,377.88,0,0,0,61,9.46V362.08Z"/><path class="cls-15" d="M588.93,373.28q3.16,0.68,6.27,1.41v-12.6q-10.27-3.05-21-5.62c-99-23.58-188.21-5.16-199.24,41.16a41.37,41.37,0,0,0-1.05,7.36C396.16,365.72,487.89,351.37,588.93,373.28Z"/><path class="cls-12" d="M313.91,429.2c-4.34-48.75-91.06-80.87-193.7-71.74-46.35,4.12-88,16-119.37,32.18V519.32C36,532.66,83.92,538.63,135.92,534,238.56,524.88,318.25,478,313.91,429.2Z"/><path class="cls-16" d="M313.91,428.08c-4.34-48.75-91.06-80.87-193.7-71.74-46.35,4.12-88,16-119.37,32.18v35.93l1.68-.36v-8.65c31.36-16.23,73-28.06,119.37-32.18,93.83-8.35,174.35,17.78,190.79,59.58A44.07,44.07,0,0,0,313.91,428.08Z"/><path class="cls-7" d="M595.9,426.05c-33.28-21.9-80.91-38.49-135-44.57-95.58-10.73-179.41,14.91-202.33,58.72h0c-0.67,1.28-1.29,2.58-1.85,3.9a53,53,0,0,0-2.34,6.55c-0.4,1.41-.74,2.82-1,4.25q-0.35,1.8-.58,3.63-0.27,2.18-.34,4.37c-0.06,1.52,0,3,0,4.56a53.8,53.8,0,0,0,1.28,9.13q0.55,2.47,1.34,4.93a66.25,66.25,0,0,0,4.33,10.35q1.41,2.74,3.1,5.44a93.77,93.77,0,0,0,8.91,12q2.76,3.18,5.88,6.27a147.92,147.92,0,0,0,17.6,14.82q5.86,4.24,12.42,8.25c32.91,20.11,78.24,35.21,129.33,40.94q7.79,0.87,15.45,1.43,9.88,0.71,19.55.92c12.14,0.26,24-.08,35.37-1q6.6-.51,13-1.28c9.21-1.09,18.1-2.55,26.6-4.36q5.23-1.11,10.25-2.4a222.22,222.22,0,0,0,21.78-6.75q4.34-1.6,8.45-3.35,4.56-1.94,8.81-4V426.05Z"/><path class="cls-17" d="M595.9,428.88a611.06,611.06,0,0,0-65.32-20.93c-109.92-28.66-211-24.26-246,7.72q2.45-1,5.05-2c41.92-24.9,135.06-26.35,235.58-.14a604.29,604.29,0,0,1,70.65,23v-7.71Z"/><path class="cls-17" d="M595.9,454.26a590.62,590.62,0,0,0-85.48-29.17c-109.92-28.66-211-24.26-246,7.72q2.45-1,5.05-2c41.92-24.9,135.05-26.35,235.58-.14a585,585,0,0,1,90.81,31.52v-8Z"/><path class="cls-17" d="M595.9,480.69c-30.33-14.87-66.23-28.19-105.64-38.47-97.54-25.43-188.14-24.83-231.73-2h0l-1.85,3.9c44.8-21.1,133.22-21,228.24,3.74,41.75,10.88,79.55,25.18,111,41.13v-8.28Z"/><path class="cls-17" d="M595.9,508.41c-34-19.12-77.26-36.38-125.8-49-86.85-22.65-168.2-24.65-215.76-8.72-0.4,1.41-.74,2.82-1,4.25C301.39,440.47,380.49,443,464.77,465c51.12,13.33,96.33,31.77,131.13,52.09v-8.67Z"/><path class="cls-17" d="M595.9,537.79c-36.3-23.91-87.24-46-146-61.29-76.59-20-148.91-23.89-197.54-13.61-0.06,1.52,0,3,0,4.56,48.5-8.92,118.34-4.59,192.17,14.66,61.66,16.08,114.73,39.6,151.29,64.89v-9.21Z"/><path class="cls-17" d="M253.71,476.59q0.55,2.47,1.34,4.93c46.39-4.25,106.45,1.32,169.4,17.73,63.3,16.5,117.56,40.85,154.19,66.9q4.34-1.6,8.45-3.35c-36.63-26.9-92.19-52.18-157.31-69.16C363.77,476.43,300.94,471.14,253.71,476.59Z"/><path class="cls-17" d="M259.38,491.87q1.41,2.74,3.1,5.44c41.52-.42,90.7,5.76,141.8,19.08,56.78,14.8,106.29,35.92,142.32,58.92q5.23-1.11,10.25-2.4c-36.38-24.24-87.83-46.64-147.24-62.13C355,496.54,302.6,490.46,259.38,491.87Z"/><path class="cls-17" d="M271.39,509.28q2.76,3.18,5.88,6.27a591.38,591.38,0,0,1,106.85,18c47.16,12.3,89.31,28.95,122.87,47.42q6.6-.51,13-1.28c-34.72-20.19-79.72-38.5-130.55-51.75C347.8,517.05,307.4,510.94,271.39,509.28Z"/><path class="cls-17" d="M294.88,530.37q5.86,4.24,12.42,8.25c18.41,3,37.41,7,56.67,12A587,587,0,0,1,452.08,581q9.88,0.71,19.55.92C442,567.69,407.28,555,369.3,545.05A617.62,617.62,0,0,0,294.88,530.37Z"/><path class="cls-7" d="M429.81,480.06a43.07,43.07,0,0,0-.43-4.56q-0.28-1.91-.73-3.79a43.73,43.73,0,0,0-1.29-4.44,49.18,49.18,0,0,0-3-6.84c-0.7-1.38-1.49-2.73-2.33-4.07h0c-28.94-45.74-134.77-72.51-255.44-61.31C100.93,401.15,42.8,417.4,1.07,439V582.11q3,1.17,6.2,2.27,5.19,1.83,10.67,3.5c8.66,2.65,17.84,5,27.5,7.05q6.34,1.34,12.94,2.51C69.11,599.34,80.34,600.86,92,602q8.08,0.8,16.42,1.33c14.4,0.93,29.34,1.28,44.66,1q12.18-.22,24.68-1,9.67-.58,19.5-1.49c64.51-6,121.73-21.76,163.28-42.75q8.27-4.18,15.69-8.62A182.78,182.78,0,0,0,398.42,535q3.94-3.22,7.43-6.54A101.81,101.81,0,0,0,417.08,516q2.14-2.82,3.92-5.68a63.34,63.34,0,0,0,5.47-10.81,51.77,51.77,0,0,0,1.69-5.15,47.24,47.24,0,0,0,1.61-9.54A43.8,43.8,0,0,0,429.81,480.06Z"/><path class="cls-18" d="M161,460.65c117-10.51,220.53,12.41,257.58,53q1.19-1.68,2.25-3.38a63.27,63.27,0,0,0,5.48-10.81,51.52,51.52,0,0,0,1.69-5.15,47.1,47.1,0,0,0,1.62-9.54,43.52,43.52,0,0,0,0-4.76,42.81,42.81,0,0,0-.43-4.56q-0.28-1.91-.73-3.79a43.25,43.25,0,0,0-1.29-4.44,49.22,49.22,0,0,0-3-6.84c-0.7-1.38-1.49-2.73-2.34-4.07h0c-29-45.74-135.07-72.51-256-61.31C100.08,401.15,41.81,417.4,0,439v60.79C42.18,480.6,98.25,466.29,161,460.65Z"/><path class="cls-17" d="M78.62,422.68C51.29,428.58,25.3,435.43,1.07,443v8c26.12-8.4,54.39-16,84.28-22.44,126.91-27.37,251.87-26,304.8.05q3.28,1,6.37,2.06C352.4,397.26,217.39,392.75,78.62,422.68Z"/><path class="cls-17" d="M104.07,440.58a864,864,0,0,0-103,28.72v8.26A854.23,854.23,0,0,1,110.8,446.44C237.71,419.07,355.93,419,408.86,445q3.28,1,6.38,2.06C371.1,413.63,242.84,410.65,104.07,440.58Z"/><path class="cls-17" d="M422.07,456.37h0c-55-23.82-169.4-24.44-292.55,2.11-47.64,10.27-91.22,23.46-128.45,38.2v8.57c38.67-15.83,84.64-30,135.18-40.91,120-25.87,231.59-25.94,288.15-3.9Z"/><path class="cls-17" d="M427.36,467.27c-60-16.64-162.74-14.55-272.39,9.1-59,12.72-111.72,29.89-153.9,49v9c43.24-20.3,98.48-38.66,160.63-52.06C268.11,459.29,368,456.64,428.65,471.71A43.73,43.73,0,0,0,427.36,467.27Z"/><path class="cls-17" d="M429.81,480.06c-61.39-10.74-152.69-6.65-249.39,14.21C108.91,509.69,46.54,531.67,1.07,555.63v9.49c45.94-25.35,111-48.79,186.08-65,93.21-20.1,181.39-24.62,242.62-15.31A43.8,43.8,0,0,0,429.81,480.06Z"/><path class="cls-17" d="M428.16,494.36a51.77,51.77,0,0,1-1.69,5.15c-58.57-4.44-134.39,1.38-213.86,18.52-79.92,17.23-148.42,42.66-194.66,69.86q-5.49-1.67-10.67-3.5c46.24-28.09,116.39-54.49,198.6-72.22C289.22,494.19,368.54,488.67,428.16,494.36Z"/><path class="cls-17" d="M421,510.32q-1.78,2.86-3.92,5.68c-52.42-.44-114.51,6-179,19.92-71.68,15.46-134.18,37.51-179.68,61.52q-6.59-1.16-12.94-2.51c45.93-25.31,110.89-48.7,185.88-64.88C300.26,515.19,366.44,508.84,421,510.32Z"/><path class="cls-17" d="M405.84,528.49q-3.48,3.31-7.43,6.54a891,891,0,0,0-134.9,18.78C204,566.66,150.76,584,108.39,603.33Q100.06,602.8,92,602c43.84-21.09,100.65-40.21,164.82-54C309.38,536.61,360.38,530.22,405.84,528.49Z"/><path class="cls-17" d="M376.2,550.51q-7.41,4.43-15.69,8.62c-23.24,3.15-47.22,7.34-71.55,12.58a850.7,850.7,0,0,0-111.24,31.66q-12.48.75-24.68,1c37.39-14.86,81.24-28.15,129.18-38.49A925.66,925.66,0,0,1,376.2,550.51Z"/><path class="cls-4" d="M127,471.63c-46,0-89.1,6.53-125.91,17.88V660H340.34c20.29-18.36,31.88-39.6,31.88-62.23C372.21,528.1,262.42,471.63,127,471.63Z"/><path class="cls-19" d="M121.08,497.3c-42.86-4.4-84-2.82-120.57,3.6V660h341a68.28,68.28,0,0,0,3.24-12.61C355.59,578.28,255.44,511.08,121.08,497.3Z"/><path class="cls-4" d="M595.9,660V498.12c-34.86-19.29-80.41-31-130.26-31-109.61,0-198.46,56.48-198.46,126.14,0,24.5,11,47.36,30,66.71H595.9Z"/><path class="cls-19" d="M262,660H595.9V506.44c-40.45-15.38-91.46-21.87-145.4-16.1-117.87,12.63-205.11,79-194.85,148.34A78.62,78.62,0,0,0,262,660Z"/><path class="cls-20" d="M595.9,660V544.88c-40.12-13.53-89.34-19.07-141.16-13.79C345.16,542.25,261.59,597.9,255.25,660H595.9Z"/><path class="cls-21" d="M509.63,606.67c-60.84,6.19-113.65,26.11-149.68,53.22H595.28V607.77A368.12,368.12,0,0,0,509.63,606.67Z"/><path class="cls-22" d="M296.38,660c-9.7-63.59-96.74-123.16-206.66-137.83a352.78,352.78,0,0,0-89.2-.91V660H296.38Z"/><path class="cls-23" d="M517.41,74.14A26.34,26.34,0,0,0,477,51.87,45.73,45.73,0,0,0,470.3,49a20.19,20.19,0,0,0-39.12-5.92A20.18,20.18,0,0,0,399,54.94a35.63,35.63,0,0,0-5.46-.42,35.2,35.2,0,0,0-24.75,10.13,26.35,26.35,0,1,0,0,50.37,35.27,35.27,0,0,0,14.7,8.67,35.31,35.31,0,0,0,47.71,7.79,46,46,0,0,0,70.18-33.07A26.36,26.36,0,0,0,517.41,74.14Z"/><path class="cls-24" d="M515.17,80.16a23.69,23.69,0,0,0-23.44-23.92,23,23,0,0,0-12.53,3.71,40.16,40.16,0,0,0-6-2.58A17.9,17.9,0,0,0,438.46,52a17.65,17.65,0,0,0-11.06-3.9,18.06,18.06,0,0,0-17.59,14.64,31,31,0,0,0-26.87,8.82A23,23,0,0,0,376,70.48a23.93,23.93,0,0,0,0,47.85,23,23,0,0,0,6.91-1.06A31.28,31.28,0,0,0,396,125.15a31.15,31.15,0,0,0,24.9,12.52,30.82,30.82,0,0,0,17.53-5.46,40.09,40.09,0,0,0,21.86,6.47c20.85,0,38-15.93,40.56-36.5A23.94,23.94,0,0,0,515.17,80.16Z"/><path class="cls-23" d="M197.59,70.84A11.12,11.12,0,0,0,198,68c0-7.77-8.08-14.07-18-14.07a23,23,0,0,0-4.22.39c-4-7.1-13.11-12.05-23.7-12.05-8.75,0-16.49,3.39-21.17,8.57A32.83,32.83,0,0,0,124,50.1a31.34,31.34,0,0,0-13.73,3.07,26.09,26.09,0,0,0-16.09-5.38c-13.31,0-24.11,9.42-24.11,21a18.8,18.8,0,0,0,2.56,9.43c-14.67,1.19-26.11,10.85-26.11,22.6,0,12.55,13.05,22.72,29.15,22.72a35,35,0,0,0,16.64-4.07,44.44,44.44,0,0,0,12.35,3.94c5.79,5.86,14.87,9.63,25.08,9.63,11.64,0,21.81-4.9,27.31-12.21a21.56,21.56,0,0,0,10.56,2.66c10,0,18-6.3,18-14.07a12,12,0,0,0-3.17-8,21.8,21.8,0,0,0,4.33-4.37c0.69,0.06,1.39.1,2.1,0.1,10,0,18-6.3,18-14.07C206.93,77.85,203.16,73.23,197.59,70.84Z"/><path class="cls-25" d="M182.07,77.84a9.42,9.42,0,0,0,.32-2.44c0-6.62-6.95-12-15.52-12a19.92,19.92,0,0,0-3.63.33c-3.45-6.05-11.28-10.28-20.39-10.28-7.53,0-14.18,2.89-18.21,7.31a28.46,28.46,0,0,0-5.9-.61,27.17,27.17,0,0,0-11.81,2.62,22.57,22.57,0,0,0-13.84-4.58c-11.45,0-20.74,8-20.74,17.94a15.93,15.93,0,0,0,2.2,8c-12.62,1-22.46,9.25-22.46,19.27,0,10.7,11.23,19.38,25.08,19.38a30.28,30.28,0,0,0,14.32-3.47,38.49,38.49,0,0,0,10.62,3.36c5,5,12.79,8.21,21.58,8.21,10,0,18.76-4.18,23.49-10.41a18.68,18.68,0,0,0,9.08,2.27c8.57,0,15.52-5.37,15.52-12a10.17,10.17,0,0,0-2.73-6.79,18.71,18.71,0,0,0,3.73-3.73c0.59,0.05,1.19.08,1.8,0.08,8.57,0,15.52-5.37,15.52-12C190.11,83.82,186.86,79.88,182.07,77.84Z"/><path class="cls-23" d="M292,139.31c0-6.37-6.12-11.53-13.66-11.53a15.64,15.64,0,0,0-6.48,1.38c-3.34-2.85-8.43-4.67-14.14-4.67-0.73,0-1.45,0-2.15.09a16.23,16.23,0,0,0-10.7-3.93,16.44,16.44,0,0,0-8.67,2.43,23.52,23.52,0,0,0-12.76-3.53c-10.2,0-18.5,5.73-18.74,12.85a17.68,17.68,0,0,0-8.49,4.76c-7.28.46-13,4.19-13,8.74,0,3.89,4.17,7.19,10,8.34a5.64,5.64,0,0,0-.31,1.81c0,5.54,8.3,10,18.63,10.15,4.38,3.57,13.94,6,25,6,10.77,0,20.09-2.33,24.64-5.73a37.84,37.84,0,0,0,4.29.24c13.46,0,24.38-7,24.38-15.65a10.56,10.56,0,0,0-1-4.45A10.46,10.46,0,0,0,292,139.31Z"/><path class="cls-26" d="M280.83,142.82c0-5.69-5.23-10.3-11.69-10.3a12.91,12.91,0,0,0-5.55,1.23,18.31,18.31,0,0,0-12.1-4.17c-0.62,0-1.24,0-1.84.08a13.73,13.73,0,0,0-16.58-1.35,19.49,19.49,0,0,0-10.92-3.15c-8.73,0-15.83,5.12-16,11.49a15,15,0,0,0-7.26,4.25c-6.23.41-11.09,3.75-11.09,7.81,0,3.48,3.57,6.43,8.52,7.46a5.25,5.25,0,0,0-.26,1.62c0,4.95,7.1,9,15.94,9.07,3.75,3.19,11.93,5.4,21.43,5.4,9.21,0,17.19-2.08,21.08-5.12a31.06,31.06,0,0,0,3.67.22c11.52,0,20.86-6.26,20.86-14a9.77,9.77,0,0,0-.86-4A9.55,9.55,0,0,0,280.83,142.82Z"/></svg>