<svg id="svg2" xmlns="http://www.w3.org/2000/svg" xmlns:xlink="http://www.w3.org/1999/xlink" viewBox="0 0 179.18 145.61"><defs><style>.cls-1{fill:none;}.cls-2{clip-path:url(#clip-path);}</style><clipPath id="clip-path" transform="translate(-1.33 -1.2)"><rect class="cls-1" x="1.34" y="1.2" width="179.17" height="145.61"/></clipPath></defs><title>twitterlogo</title><g id="g10"><g id="g12"><g id="g14"><g class="cls-2"><g id="g16"><path id="path22" d="M180.51,18.44a73.5,73.5,0,0,1-21.11,5.79A36.88,36.88,0,0,0,175.56,3.89a73.5,73.5,0,0,1-23.34,8.92A36.79,36.79,0,0,0,89.58,46.34,104.36,104.36,0,0,1,13.81,7.93,36.8,36.8,0,0,0,25.19,57a36.56,36.56,0,0,1-16.65-4.6c0,0.15,0,.31,0,0.46A36.78,36.78,0,0,0,38,88.92a37,37,0,0,1-16.6.63,36.8,36.8,0,0,0,34.34,25.53A73.79,73.79,0,0,1,10.1,130.81a75.21,75.21,0,0,1-8.77-.51,104.08,104.08,0,0,0,56.35,16.51c67.61,0,104.58-56,104.58-104.59q0-2.39-.1-4.75a74.85,74.85,0,0,0,18.34-19" transform="translate(-1.33 -1.2)"/></g></g></g></g></g></svg>